<svg xmlns="http://www.w3.org/2000/svg" viewBox="0 0 427.93 50.49"><defs><style>.cls-1{fill:#ff4713;}.cls-2{fill:#fff;}</style></defs><title>Asset 8</title><g id="Layer_2" data-name="Layer 2"><g id="Layer_1-2" data-name="Layer 1"><path class="cls-1" d="M390.05,40.39a5,5,0,1,0,5.05,5,5.05,5.05,0,0,0-5.05-5"/><path class="cls-2" d="M237.75,0h9.53l-18.1,44.79-2.3,5.7h0a7.3,7.3,0,0,1-6.77-4.56l-.46-1.14h0l-13.33-33L193,44.79l-2.3,5.7h0a7.29,7.29,0,0,1-6.77-4.56l-.46-1.14h0L165.36,0h9.53l13.34,33L201.56,0h9.53l13.33,33ZM392.49,30.85V23.54l-3.15,4.78h-.06l-3.12-4.74v7.27h-2.42V19.65h2.66l2.94,4.74,3-4.74h2.65v11.2Zm7.15-11.2h2.46v11.2h-2.46Zm14.9,7.79v0c0,2.17-1.69,3.38-4.11,3.38a7.25,7.25,0,0,1-4.75-1.75l1.46-1.69a5.2,5.2,0,0,0,3.34,1.32c1,0,1.62-.39,1.62-1v0c0-.6-.39-.92-2.26-1.38-2.26-.56-3.71-1.17-3.71-3.33v0c0-2,1.63-3.28,3.92-3.28A6.65,6.65,0,0,1,414.21,21l-1.28,1.81A5.35,5.35,0,0,0,410,21.76c-.95,0-1.44.42-1.44.95v0c0,.72.48,1,2.41,1.44,2.27.57,3.55,1.36,3.55,3.26m10.55-3.94c0,.95-.68,1.59-1.88,1.59h-2.5V21.87h2.45c1.2,0,1.93.55,1.93,1.6Zm.1,3.35a3.49,3.49,0,0,0,2.4-3.47v0a3.55,3.55,0,0,0-1-2.56,4.49,4.49,0,0,0-3.26-1.13h-5.12v11.2h2.46V27.26h1.94l2.4,3.59h2.88ZM316.37,20.2a16.42,16.42,0,0,1,31.24,0ZM332,0a25.25,25.25,0,0,0-25.25,25.25A26.17,26.17,0,0,0,307,29a25.26,25.26,0,0,0,48.11,6.32H344.92A16.41,16.41,0,0,1,316,29H357a24.82,24.82,0,0,0,.29-3.78A25.25,25.25,0,0,0,332,0M258.3,20.2a16.42,16.42,0,0,1,31.24,0ZM273.92,0a25.19,25.19,0,0,0-25.24,25.25A24.83,24.83,0,0,0,249,29a25.26,25.26,0,0,0,48.11,6.32H286.86A16.42,16.42,0,0,1,258,29h40.94a26.17,26.17,0,0,0,.28-3.78A25.25,25.25,0,0,0,273.92,0M159.05,0V2.53a6.31,6.31,0,0,1-6.31,6.31H138.22V44.18a6.3,6.3,0,0,1-6.31,6.31h-2.52V8.84H108.56V0ZM50.49,2.53a6.31,6.31,0,0,1-6.31,6.31H29.66V44.18a6.3,6.3,0,0,1-6.31,6.31H20.83V8.84H0V0H50.49ZM390.05,0h5.05V8.84h-5.05a16.4,16.4,0,0,0-16.4,16.37v19a6.31,6.31,0,0,1-6.32,6.31h-2.52V0h8.84V6.06A25.11,25.11,0,0,1,390.05,0M75.74,41.66A16.41,16.41,0,1,1,92.15,25.22v.05A16.42,16.42,0,0,1,75.74,41.66M101,25.24V0H97.2a5,5,0,0,0-5,5.05v1a25.24,25.24,0,1,0,0,38.37,6.3,6.3,0,0,0,6.3,6.06H101V25.25h0Z"/></g></g></svg>